<svg width="24" height="22" viewBox="0 0 24 22" fill="none" xmlns="http://www.w3.org/2000/svg">
<path d="M4.10392 2.61882L3.91113 2.15748L4.60392 1.86796V2.61882H4.10392ZM4.10392 12.1109H4.60392L3.64206 12.3025L4.10392 12.1109ZM1.54957 5.95105L1.08768 6.14258L1.08564 6.13752L1.54957 5.95105ZM17.9794 19.6794L17.5173 19.4884L17.5175 19.488L17.9794 19.6794ZM16.0768 20.9723L16.0898 21.4723H16.0768V20.9723ZM15.2464 20.8147L15.4376 20.3527L15.4412 20.3542L15.2464 20.8147ZM7.49921 17.6086L7.6902 17.1465L7.6904 17.1466L7.49921 17.6086ZM6.20626 15.7165L6.70595 15.698L6.70609 15.7035L6.20626 15.7165ZM6.36394 14.8755L6.82586 15.0669L6.82442 15.0703L6.36394 14.8755ZM11.5778 2.29295L12.0407 2.4818L12.0397 2.48435L11.5778 2.29295ZM13.5014 1.00001L13.495 0.500006H13.5014V1.00001ZM14.3108 1.15768L14.4965 0.693407L14.5022 0.695772L14.3108 1.15768ZM22.0475 4.36377L21.8571 4.82611L21.8561 4.82568L22.0475 4.36377ZM9.84335 1.00002V0.500023H10.5931L10.3049 1.19218L9.84335 1.00002ZM8.92889 3.19674L8.46729 3.00458L8.92889 3.19674ZM8.30345 4.69917L8.76506 4.89133L8.30345 4.69917ZM6.21679 9.71178L6.67839 9.90394L5.71679 9.71178H6.21679ZM6.21679 3.10237H6.71679H6.21679ZM2.50255 2.74614L3.91113 2.15748L4.29672 3.08015L2.88814 3.66881L2.50255 2.74614ZM4.60392 2.61882V12.1109H3.60392V2.61882H4.60392ZM3.64206 12.3025L1.0877 6.14257L2.01143 5.75952L4.56579 11.9194L3.64206 12.3025ZM1.08564 6.13752C0.553005 4.81242 1.18769 3.29292 2.50337 2.7458L2.88733 3.66915C2.07964 4.00502 1.68417 4.94527 2.01349 5.76457L1.08564 6.13752ZM23.6552 7.28823L18.4413 19.8708L17.5175 19.488L22.7313 6.90542L23.6552 7.28823ZM18.4415 19.8704C18.0355 20.8526 17.0845 21.4463 16.0898 21.4722L16.0638 20.4725C16.688 20.4563 17.2716 20.083 17.5173 19.4884L18.4415 19.8704ZM16.0768 21.4723C15.7529 21.4723 15.4 21.4226 15.0516 21.2752L15.4412 20.3542C15.6394 20.438 15.8541 20.4723 16.0768 20.4723V21.4723ZM15.0552 21.2767L7.30801 18.0706L7.6904 17.1466L15.4376 20.3527L15.0552 21.2767ZM7.30821 18.0707C6.32867 17.6658 5.73234 16.7271 5.70643 15.7294L6.70609 15.7035C6.72223 16.3247 7.09297 16.8996 7.6902 17.1465L7.30821 18.0707ZM5.7066 15.735C5.6933 15.3759 5.76016 15.0194 5.90345 14.6807L6.82442 15.0703C6.73645 15.2783 6.69819 15.4894 6.70592 15.698L5.7066 15.735ZM5.90202 14.6841L11.1159 2.10155L12.0397 2.48435L6.82585 15.0669L5.90202 14.6841ZM11.1148 2.10411C11.5214 1.10717 12.4876 0.512962 13.495 0.500048L13.5078 1.49996C12.8754 1.50807 12.2858 1.88095 12.0407 2.48179L11.1148 2.10411ZM13.5014 0.500006C13.8394 0.500006 14.1756 0.565088 14.4965 0.693441L14.1251 1.62192C13.9204 1.54004 13.7101 1.50001 13.5014 1.50001V0.500006ZM14.5022 0.695772L22.2389 3.90186L21.8561 4.82568L14.1194 1.61959L14.5022 0.695772ZM22.2379 3.90143C23.5627 4.44695 24.2041 5.9682 23.6549 7.28881L22.7316 6.90484C23.0654 6.10207 22.6767 5.16357 21.8571 4.82611L22.2379 3.90143ZM8.31914 0.500023H9.84335V1.50002H8.31914V0.500023ZM10.3049 1.19218L9.39049 3.38889L8.46729 3.00458L9.38175 0.807865L10.3049 1.19218ZM9.39049 3.38889L8.76506 4.89133L7.84185 4.50702L8.46729 3.00458L9.39049 3.38889ZM8.76506 4.89133L6.67839 9.90394L5.75519 9.51962L7.84185 4.50702L8.76506 4.89133ZM5.71679 9.71178V3.10237H6.71679V9.71178H5.71679ZM5.71679 3.10237C5.71679 1.66994 6.88671 0.500023 8.31914 0.500023V1.50002C7.43899 1.50002 6.71679 2.22222 6.71679 3.10237H5.71679Z" fill="#9BAEC8"/>
<path fill-rule="evenodd" clip-rule="evenodd" d="M6.77493 10.7807L10.8833 1.56318H8.76796L6.77493 5.95668V10.7807Z" fill="#38465F"/>
<path fill-rule="evenodd" clip-rule="evenodd" d="M5.02982 12.9467V2.78333L3.10596 3.66898L3.46098 9.07863L5.02982 12.9467Z" fill="#38465F"/>
</svg>
